<?xml version="1.0" encoding="UTF-8" standalone="no"?>
<!-- Created with Inkscape (http://www.inkscape.org/) -->

<svg
   inkscape:version="1.1 (c68e22c387, 2021-05-23)"
   sodipodi:docname="Koala.svg"
   viewBox="0 0 588.44446 888.88892"
   height="888.88892"
   width="588.44446"
   id="svg6113"
   version="1.1"
   xmlns:inkscape="http://www.inkscape.org/namespaces/inkscape"
   xmlns:sodipodi="http://sodipodi.sourceforge.net/DTD/sodipodi-0.dtd"
   xmlns="http://www.w3.org/2000/svg"
   xmlns:svg="http://www.w3.org/2000/svg">
  <defs
     id="defs6117">
    <inkscape:path-effect
       effect="skeletal"
       id="path-effect1704"
       is_visible="true"
       lpeversion="1"
       pattern="m -138.02958,975.92564 c 0,-17.56631 14.25671,-31.82302 31.82302,-31.82302 17.566306,0 31.823019,14.25671 31.823019,31.82302 0,17.56631 -14.256713,31.82306 -31.823019,31.82306 -17.56631,0 -31.82302,-14.25675 -31.82302,-31.82306 z"
       copytype="single_stretched"
       prop_scale="0.0323378"
       scale_y_rel="false"
       spacing="0"
       normal_offset="0"
       tang_offset="0"
       prop_units="false"
       vertical_pattern="false"
       hide_knot="false"
       fuse_tolerance="0" />
    <inkscape:path-effect
       effect="skeletal"
       id="path-effect1700"
       is_visible="true"
       lpeversion="1"
       pattern="m -138.02958,975.92564 c 0,-17.56631 14.25671,-31.82302 31.82302,-31.82302 17.566306,0 31.823019,14.25671 31.823019,31.82302 0,17.56631 -14.256713,31.82306 -31.823019,31.82306 -17.56631,0 -31.82302,-14.25675 -31.82302,-31.82306 z"
       copytype="single_stretched"
       prop_scale="0.0323378"
       scale_y_rel="false"
       spacing="0"
       normal_offset="0"
       tang_offset="0"
       prop_units="false"
       vertical_pattern="false"
       hide_knot="false"
       fuse_tolerance="0" />
    <inkscape:path-effect
       effect="skeletal"
       id="path-effect1696"
       is_visible="true"
       lpeversion="1"
       pattern="m -109.28085,1008.4092 c 0,-11.8806 12.536522,-21.52282 27.983315,-21.52282 15.446787,0 27.983313,9.64222 27.983313,21.52282 0,11.8806 -12.536526,21.5228 -27.983313,21.5228 -15.446793,0 -27.983315,-9.6422 -27.983315,-21.5228 z"
       copytype="single_stretched"
       prop_scale="0.10121669"
       scale_y_rel="false"
       spacing="0"
       normal_offset="0"
       tang_offset="0"
       prop_units="false"
       vertical_pattern="false"
       hide_knot="false"
       fuse_tolerance="0" />
    <inkscape:path-effect
       effect="skeletal"
       id="path-effect1692"
       is_visible="true"
       lpeversion="1"
       pattern="m -135.5555,976.81183 c 0,-17.56631 14.25671,-31.82302 31.82302,-31.82302 17.566308,0 31.823021,14.25671 31.823021,31.82302 0,17.56631 -14.256713,31.82307 -31.823021,31.82307 -17.56631,0 -31.82302,-14.25676 -31.82302,-31.82307 z"
       copytype="single_stretched"
       prop_scale="0.032337769"
       scale_y_rel="false"
       spacing="0"
       normal_offset="0"
       tang_offset="0"
       prop_units="false"
       vertical_pattern="false"
       hide_knot="false"
       fuse_tolerance="0" />
    <inkscape:path-effect
       effect="skeletal"
       id="path-effect11994"
       is_visible="true"
       lpeversion="1"
       pattern="M 0,18.867925 C 0,8.4528302 8.4528302,0 18.867925,0 c 10.415094,0 18.867924,8.4528302 18.867924,18.867925 0,10.415094 -8.45283,18.867924 -18.867924,18.867924 C 8.4528302,37.735849 0,29.283019 0,18.867925 Z"
       copytype="single_stretched"
       prop_scale="0.032337769"
       scale_y_rel="false"
       spacing="0"
       normal_offset="0"
       tang_offset="0"
       prop_units="false"
       vertical_pattern="false"
       hide_knot="false"
       fuse_tolerance="0" />
    <inkscape:path-effect
       effect="skeletal"
       id="path-effect11938"
       is_visible="true"
       lpeversion="1"
       pattern="m -573.83049,-707.08084 c 0,-18.88928 19.93214,-34.2197 44.4914,-34.2197 24.55925,0 44.4914,15.33042 44.4914,34.2197 0,18.88928 -19.93215,34.21971 -44.4914,34.21971 -24.55926,0 -44.4914,-15.33043 -44.4914,-34.21971 z"
       copytype="single_stretched"
       prop_scale="0.10121669"
       scale_y_rel="false"
       spacing="0"
       normal_offset="0"
       tang_offset="0"
       prop_units="false"
       vertical_pattern="false"
       hide_knot="false"
       fuse_tolerance="0" />
    <inkscape:path-effect
       effect="skeletal"
       id="path-effect15385"
       is_visible="true"
       lpeversion="1"
       pattern="m -619.53885,-758.72731 c 0,-27.92913 22.66712,-50.59625 50.59625,-50.59625 27.92913,0 50.59625,22.66712 50.59625,50.59625 0,27.92913 -22.66712,50.59626 -50.59625,50.59626 -27.92913,0 -50.59625,-22.66713 -50.59625,-50.59626 z"
       copytype="single_stretched"
       prop_scale="0.0323378"
       scale_y_rel="false"
       spacing="0"
       normal_offset="0"
       tang_offset="0"
       prop_units="false"
       vertical_pattern="false"
       hide_knot="false"
       fuse_tolerance="0" />
    <inkscape:path-effect
       effect="skeletal"
       id="path-effect15389"
       is_visible="true"
       lpeversion="1"
       pattern="m -619.53885,-758.72731 c 0,-27.92913 22.66712,-50.59625 50.59625,-50.59625 27.92913,0 50.59625,22.66712 50.59625,50.59625 0,27.92913 -22.66712,50.59626 -50.59625,50.59626 -27.92913,0 -50.59625,-22.66713 -50.59625,-50.59626 z"
       copytype="single_stretched"
       prop_scale="0.0323378"
       scale_y_rel="false"
       spacing="0"
       normal_offset="0"
       tang_offset="0"
       prop_units="false"
       vertical_pattern="false"
       hide_knot="false"
       fuse_tolerance="0" />
  </defs>
  <sodipodi:namedview
     id="namedview6115"
     pagecolor="#ffffff"
     bordercolor="#666666"
     borderopacity="1.0"
     inkscape:pageshadow="2"
     inkscape:pageopacity="0.0"
     inkscape:pagecheckerboard="0"
     showgrid="false"
     inkscape:zoom="0.42237125"
     inkscape:cx="144.42271"
     inkscape:cy="387.10021"
     inkscape:window-width="1366"
     inkscape:window-height="745"
     inkscape:window-x="-8"
     inkscape:window-y="-8"
     inkscape:window-maximized="1"
     inkscape:current-layer="layer1"
     inkscape:snap-global="false"
     showguides="true"
     inkscape:guide-bbox="true"
     inkscape:snap-smooth-nodes="true" />
  <g
     inkscape:groupmode="layer"
     id="layer1"
     inkscape:label="Image 1"
     style="display:inline">
    <g
       id="g6560"
       transform="translate(729.7434,208.254)"
       style="display:inline">
      <path
         style="fill:#99aab5;fill-opacity:1;stroke:#000000;stroke-width:1.00287;stroke-linecap:butt;stroke-linejoin:miter;stroke-miterlimit:4;stroke-dasharray:none;stroke-opacity:1"
         d="m -435.66911,113.5961 c -9.50403,0.90092 -4.98119,8.01445 -9.84765,5.33789 0,0 -3.2409,-7.43955 -17.73047,-1.80664 9.47366,6.76288 -6.51912,6.67661 -8.44457,4.90209 -2.00132,-3.87838 -8.2085,-2.56694 -14.25826,-2.76493 3.22567,9.13568 -4.26147,6.79193 -20.85476,6.90965 5.1508,2.98033 -1.60528,5.73116 -3.91601,7.2832 -7.41144,0.27649 -7.14985,-2.56224 -15.78906,2.39258 7.47206,0.5211 0.83812,7.94638 -0.98734,11.25788 -32.60098,-21.11226 -63.13657,-16.80654 -71.25168,-14.76114 -8.11512,2.04541 -3.772,-18.10994 -35.75809,-14.66855 8.03204,4.14531 19.19059,8.04094 9.0918,13.63672 -9.62102,-7.25265 -17.0253,-1.1995 -25.28516,-0.28516 11.9351,0.83692 13.68508,5.24036 10.51172,11.36524 -10.06128,11.39749 -23.42077,14.22106 -37.2168,15.9082 7.10227,1.2389 14.20437,5.01188 21.30664,1.41992 -12.71123,7.04768 -27.27419,9.46436 -35.79492,26.98828 0.55572,-0.32504 27.20173,-19.00142 18.18164,0.56836 -12.66097,0.50363 -13.32162,17.36988 -18.46484,28.125 19.58261,-10.29749 12.08386,1.77708 16.19336,4.26172 -14.9924,-5.15348 -10.76113,14.98806 -12.5,27.27344 5.4892,-4.85585 6.33388,-22.80238 19.31836,-6.53516 -13.90868,11.49438 -9.13514,12.37879 -8.8086,20.17188 3.62013,-9.33662 5.90994,-4.36225 13.06836,-10.22852 5.9959,11.91088 9.54311,23.98574 4.26172,36.64844 3.45773,-4.54287 8.89615,-5.12633 9.66016,-15.05664 3.71651,18.10911 -2.91437,22.41059 5.96484,29.26172 -0.38915,-8.26844 7.30942,-6.87302 12.2168,-6.81836 3.89356,8.89602 -2.63559,10.50233 7.38672,21.02148 7.76451,-19.61828 10.19129,-11.81046 23.34961,-14.13476 -6.0461,76.07099 71.38555,109.7089 96.21289,114.26172 20.07979,3.68225 39.26799,20.39587 57.73242,20.43945 18.46448,0.0451 32.78892,-16.01509 50.51563,-19.24414 51.64904,-9.40817 108.64596,-31.91287 103.32163,-115.56054 0,0 26.97942,2.81395 33.04202,-0.42317 6.77206,0.67684 9.25239,2.11489 7.35351,13.1914 4.30727,0.44929 2.46706,-12.81201 8.39844,-20.72461 5.93138,-7.91259 8.13202,8.06212 10.80469,11.51563 7.38091,-14.83849 -5.9302,-24.19116 2.48633,-31.27734 8.41654,-7.08618 -0.40727,6.91531 13.99023,9.5 -5.6146,-12.17235 -1.53481,-45.63424 10.99219,-14.69336 0.0114,-25.10131 -15.25415,-51.87303 4.63059,-37.34531 3.94289,-15.69934 -8.62379,-25.09612 -10.99467,-32.04905 0,0 5.82202,-6.21629 15.01118,1.49178 -1.52658,-21.56506 -43.48235,-25.83247 -10.93147,-35.96408 -5.83249,-3.30144 -22.7961,-15.59105 -37.68825,-11.32011 0,0 4.88791,-15.83481 27.38337,-16.52807 -15.07309,-7.59213 -34.22761,-11.51493 -53.3417,-4.19345 -19.11409,7.32148 -39.94955,-13.64035 -76.21786,14.76114 -8.20145,2.57082 -18.64212,-3.30772 -20.62109,-7.13672 -8.35842,2.29117 -17.56083,-5.31664 -11.00586,-9.08985 -14.96471,-2.92089 -13.0451,-7.13747 -26.69532,-1.6289 -12.44603,-2.64743 -2.92423,-10.16198 -15.54743,-10.26946 -0.42529,4.15936 -16.40352,0.2593 -12.43499,-5.38679 z"
         id="path7458-7"
         sodipodi:nodetypes="cccccccccsccccccccccccccccccccscccccscsccccccccscccccc" />
      <path
         id="path30021-3"
         style="opacity:0.145709;fill:#ffffff;fill-opacity:1;stroke:none;stroke-width:5.01435px;stroke-linecap:butt;stroke-linejoin:miter;stroke-opacity:1"
         d="m -435.66824,113.59706 c -9.50403,0.90092 -4.9812,8.01445 -9.84766,5.33789 0,0 -3.2409,-7.43955 -17.73047,-1.80664 9.47366,6.76288 -6.51986,6.67491 -8.44531,4.90039 -2.00132,-3.87838 -8.20805,-2.56569 -14.25781,-2.76368 3.22567,9.13568 -4.26218,6.79049 -20.85547,6.90821 5.1508,2.98033 -1.60529,5.73116 -3.91602,7.2832 -7.41144,0.27649 -7.14985,-2.56224 -15.78906,2.39258 7.47206,0.5211 0.83913,7.94826 -0.98633,11.25976 -32.60098,-21.11226 -63.13684,-16.80711 -71.25195,-14.76171 -8.11512,2.04541 -3.77172,-18.10936 -35.75781,-14.66797 8.03204,4.14531 19.19059,8.04094 9.0918,13.63672 -9.62102,-7.25265 -17.0253,-1.1995 -25.28516,-0.28516 11.9351,0.83692 13.68508,5.24035 10.51172,11.36523 -10.06128,11.39749 -23.42077,14.22107 -37.2168,15.90821 7.10227,1.2389 14.20437,5.01188 21.30664,1.41992 -12.71123,7.04768 -27.27419,9.46436 -35.79492,26.98828 0.55572,-0.32504 27.20173,-19.00142 18.18164,0.56836 -12.66097,0.50363 -13.32162,17.36988 -18.46484,28.125 19.58261,-10.29749 12.08386,1.77708 16.19336,4.26172 -14.9924,-5.15348 -10.76113,14.98806 -12.5,27.27344 5.4892,-4.85585 6.33388,-22.80238 19.31836,-6.53516 -13.90869,11.49438 -9.13514,12.37878 -8.8086,20.17187 3.62013,-9.33662 5.90994,-4.36224 13.06836,-10.22851 5.9959,11.91088 9.54311,23.98574 4.26172,36.64844 3.45773,-4.54287 8.89615,-5.12633 9.66016,-15.05664 3.71651,18.10911 -2.91437,22.41058 5.96484,29.26171 -0.38915,-8.26844 7.30942,-6.87302 12.2168,-6.81836 3.89356,8.89603 -2.6356,10.50234 7.38672,21.02149 7.7645,-19.61828 10.19128,-11.81047 23.3496,-14.13477 -1.09694,13.80155 0.58002,26.18765 4.16602,37.27539 6.51387,3.24707 14.29635,9.1503 23.64453,18.64454 23.91807,20.50862 -6.23163,-23.5388 27.48047,-2.1543 33.71211,21.3845 39.89665,-13.39033 54.5,-22.74024 -0.15669,-4.38548 38.24963,-12.26295 83.43555,-5.01562 1.31585,9.87259 -28.51099,56.07241 6.5332,47.73047 24.94366,-5.16681 33.78544,-44.388 38.20117,-3.9336 l 44.40625,-18.86523 c 5.74336,3.93117 10.585,6.81477 15.04883,9.24805 7.87804,-15.42394 11.97131,-35.06075 10.36523,-60.29297 0,0 26.98037,2.81329 33.04297,-0.42383 6.77206,0.67684 9.2524,2.1149 7.35352,13.19141 4.30727,0.44929 2.46706,-12.81201 8.39844,-20.72461 5.93138,-7.91259 8.13201,8.06211 10.80468,11.51562 7.38091,-14.83849 -5.9302,-24.19116 2.48633,-31.27734 8.41654,-7.08618 -0.40727,6.91531 13.99024,9.5 -5.61461,-12.17235 -1.53482,-45.63424 10.99218,-14.69336 0.0114,-25.10131 -15.25388,-51.87342 4.63086,-37.3457 3.94289,-15.69934 -8.62521,-25.0959 -10.99609,-32.04883 0,0 5.82256,-6.21589 15.01172,1.49219 -1.52658,-21.56507 -43.48252,-25.83324 -10.93164,-35.96485 -5.83249,-3.30144 -22.79535,-15.59125 -37.6875,-11.32031 0,0 4.88735,-15.83409 27.38281,-16.52734 -15.07309,-7.59213 -34.22771,-11.51484 -53.3418,-4.19336 -19.11409,7.32148 -39.94848,-13.63978 -76.21679,14.76171 -8.20145,2.57082 -18.64213,-3.30771 -20.6211,-7.13671 -8.35842,2.29117 -17.56083,-5.31664 -11.00586,-9.08985 -14.96471,-2.92089 -13.04509,-7.13747 -26.69531,-1.6289 -12.44603,-2.64743 -2.92563,-10.16206 -15.54883,-10.26954 -0.42529,4.15936 -16.40212,0.25938 -12.43359,-5.38671 z" />
      <ellipse
         style="fill:#000000;fill-rule:evenodd;stroke:#000000;stroke-width:1.00287;stroke-linejoin:round;stroke-miterlimit:4;stroke-dasharray:none;stroke-opacity:1"
         id="path6415-6-4"
         cx="386.22449"
         cy="286.56693"
         rx="17.439327"
         ry="16.837971"
         transform="scale(-1,1)" />
      <ellipse
         style="fill:#ffffff;fill-rule:evenodd;stroke:none;stroke-width:0.74262;stroke-linejoin:round;stroke-miterlimit:4;stroke-dasharray:none;stroke-opacity:1"
         id="ellipse10377-9-9"
         ry="4.00771"
         rx="3.5624094"
         cy="279.87265"
         cx="388.52817"
         transform="scale(-1,1)" />
      <path
         style="fill:#808080;stroke:none;stroke-width:1px;stroke-linecap:butt;stroke-linejoin:miter;stroke-opacity:1"
         d="m -402.69082,293.1187 c 19.41152,18.58657 39.94995,-0.6201 30.09493,-13.9788 -4.0576,-5.50018 -16.69076,-16.73555 -31.46815,10.53221 -1.75247,-5.2662 1.8401,-27.14046 13.93787,-28.79601 12.09777,-1.65555 27.64241,16.3709 28.71958,19.95894 1.07717,3.58804 -7.38393,27.37814 -22.83949,26.10976 -15.45557,-1.26838 -17.16051,-10.14036 -17.16051,-10.14036"
         id="path47164-9"
         sodipodi:nodetypes="csczzzc" />
      <path
         style="fill:#e6e6e6;stroke:none;stroke-width:0.486328px;stroke-linecap:butt;stroke-linejoin:miter;stroke-opacity:1"
         d="m -400.68354,295.20804 c 0.37371,-0.25918 -3.5733,-4.2086 -2.22454,-7.62123 -3.5882,2.83967 -4.39473,4.1092 -3.53089,5.46072 0.86384,1.35152 5.75543,2.16051 5.75543,2.16051 z"
         id="path47162-6"
         sodipodi:nodetypes="cczc" />
      <path
         id="path38634-4"
         style="opacity:0.546906;fill:#474f54;fill-opacity:1;stroke:none;stroke-width:5.01435px;stroke-linecap:butt;stroke-linejoin:miter;stroke-opacity:1"
         d="m -320.14871,381.94471 c -61.03292,32.01478 -66.03863,16.28848 -97.79297,38.25977 -11.71808,8.56671 -47.77544,14.0808 -71.26758,-6.82422 -28.16526,-9.3847 -44.93178,-8.9315 -61.28711,-17.08984 1.92355,1.23949 3.84436,2.3921 5.75782,3.50976 0.45815,0.26718 0.91622,0.53864 1.37304,0.79883 1.88076,1.0732 3.74992,2.09783 5.59571,3.05469 0.3504,0.18102 0.69426,0.34855 1.04297,0.52539 5.42593,2.76164 10.60562,4.99796 15.3457,6.77539 0.8741,0.32547 1.76133,0.66606 2.60156,0.95898 1.01488,0.35631 1.98499,0.67525 2.94531,0.98438 1.18272,0.37789 2.32796,0.72561 3.41797,1.0332 0.6386,0.18134 1.29456,0.37594 1.89844,0.5332 1.6848,0.43607 3.28382,0.8149 4.66602,1.06836 2.50997,0.46028 5.00584,1.12409 7.48828,1.9336 2.48244,0.8095 4.95069,1.76394 7.40625,2.80664 2.45556,1.0427 4.89683,2.17215 7.32617,3.33203 1.25352,0.59847 2.49356,1.20623 3.74023,1.8125 1.16952,0.56875 2.3462,1.13721 3.50977,1.69922 5.2e-4,2.5e-4 10e-4,-2.6e-4 0.002,0 2.40323,1.16076 4.79355,2.29391 7.17188,3.33984 5.3e-4,2.3e-4 10e-4,-2.3e-4 0.002,0 0.0112,0.005 0.022,0.009 0.0332,0.0137 2.36699,1.04015 4.72148,1.99539 7.06446,2.80664 2.3546,0.81529 4.69829,1.48671 7.02929,1.95508 2.331,0.46838 4.65093,0.73479 6.95899,0.74024 2.30806,0.006 4.55072,-0.24051 6.74414,-0.68164 6.58024,-1.32341 12.7103,-4.40311 18.78906,-7.7129 4.0525,-2.20652 8.08279,-4.51558 12.20703,-6.4746 2.03277,-0.96557 4.09066,-1.84252 6.18359,-2.58399 0.0489,-0.0173 0.0975,-0.0356 0.14649,-0.0527 2.10623,-0.739 4.24896,-1.3382 6.44531,-1.73828 27.90508,-5.08308 57.28754,-14.09397 77.64258,-34.4004 -0.0702,-0.1314 -0.11511,-0.2503 -0.1875,-0.38281 z" />
      <path
         style="fill:#869097;fill-opacity:0.960784;stroke:none;stroke-width:1px;stroke-linecap:butt;stroke-linejoin:miter;stroke-opacity:1"
         d="m -553.99071,158.15575 c -9.31012,-8.12051 1.21756,-14.46138 -20.22472,-11.79775 5.57505,8.74573 12.00564,12.85516 -7.30337,8.42697 -17.41573,-6.51105 -34.83146,-13.36464 -52.24719,0.5618 0,0 12.81919,12.92434 0.5618,14.60674 -25.78736,3.53948 -34.735,39.484 -33.70787,37.07865 10.28767,-9.15073 17.7963,2.07809 23.59551,25.8427 -13.34787,-0.39732 -13.9147,9.07907 -10.12832,17.90462 10.91033,-12.18911 6.83933,11.29687 10.69012,13.55605 12.4004,-16.01064 18.01362,4.17706 26.40449,9.55056 -0.0781,9.72825 -9.63697,9.44253 -6.35336,12.54337 2.77126,2.61702 14.92183,8.43572 21.52191,5.99596 3.33953,-15.56015 12.52416,-11.16662 9.81847,-24.79243 10.0531,-12.00006 22.30984,-8.11251 12.97365,-19.10285 9.65783,-7.45401 19.88323,-21.62222 3.87079,-20.38135 10.65661,-14.68749 17.68839,-19.40412 14.19898,-33.52972 9.98485,7.48486 3.72358,-18.25308 13.0707,-28.59814 z"
         id="path6965"
         sodipodi:nodetypes="ccccscccccsccccccc" />
      <path
         style="fill:#000000;stroke:#000000;stroke-width:1.00287;stroke-linecap:butt;stroke-linejoin:miter;stroke-miterlimit:4;stroke-dasharray:none;stroke-opacity:1"
         d="m -595.12666,242.3877 c -9.25346,8.75232 -5.82673,26.22947 -9.92515,24.59966 -4.47475,-1.77946 -5.98493,-24.34355 -13.25183,-17.67219 9.35984,-14.86026 2.49171,-33.67046 -9.22918,-10.84236 -7.15264,-9.62196 -2.44149,-21.02676 0.55457,-25.15782 9.02145,-9.27026 -0.67561,-13.66888 -5.80652,-17.47975 10.55732,-18.72319 43.20049,-7.87932 22.92855,-27.40535 6.00705,-13.08496 27.86282,7.71471 36.05821,-2.95931 9.58536,6.72474 23.75122,1.92046 13.3285,12.25131 -6.40334,6.3469 2.96709,25.7025 -19.93866,26.18284 11.7009,2.15575 -16.17404,16.3324 -6.23957,26.11986 -3.83287,6.75588 -8.47892,12.36311 -8.47892,12.36311 z"
         id="path6452-5"
         sodipodi:nodetypes="ssccccccsccs" />
      <path
         style="fill:#000000;stroke:#000000;stroke-width:0.997555;stroke-linecap:butt;stroke-linejoin:miter;stroke-miterlimit:4;stroke-dasharray:none;stroke-opacity:1"
         d="m -474.21638,410.18473 c 10.13264,8.57764 29.66631,12.12419 48.93106,0.41829 -1.03405,-1.69168 -24.53667,6.69803 -23.71211,-10.34027 -0.79332,16.68537 -19.32159,12.27154 -25.21895,9.92198 z"
         id="path20943-7"
         sodipodi:nodetypes="cccc" />
      <path
         style="opacity:1;fill:#595959;fill-opacity:1;stroke:none;stroke-width:5.1874px;stroke-linecap:butt;stroke-linejoin:miter;stroke-opacity:1"
         d="m -486.55393,364.98756 c 0,0 43.88134,16.83262 67.14778,10.83623 0,0 -0.88462,14.55185 -6.04058,18.47616 -14.1498,10.76969 -36.46262,9.74388 -47.47084,-3.89199 -6.15117,-7.61946 -13.63636,-25.4204 -13.63636,-25.4204 z"
         id="path32439-2"
         sodipodi:nodetypes="ccssc" />
      <ellipse
         style="fill:#000000;fill-rule:evenodd;stroke:#000000;stroke-width:1.00287;stroke-linejoin:round;stroke-miterlimit:4;stroke-dasharray:none;stroke-opacity:1"
         id="path6415-6"
         cx="-513.6687"
         cy="286.83786"
         rx="17.439327"
         ry="16.837971" />
      <ellipse
         style="fill:#ffffff;fill-rule:evenodd;stroke:none;stroke-width:0.74262;stroke-linejoin:round;stroke-miterlimit:4;stroke-dasharray:none;stroke-opacity:1"
         id="ellipse10377-9"
         ry="4.00771"
         rx="3.5624094"
         cy="280.14359"
         cx="-513.86194" />
      <path
         style="fill:#808080;stroke:none;stroke-width:1px;stroke-linecap:butt;stroke-linejoin:miter;stroke-opacity:1"
         d="m -497.20237,293.38961 c -19.41152,18.58657 -39.94995,-0.6201 -30.09493,-13.9788 4.0576,-5.50018 16.69076,-16.73555 31.46815,10.53221 1.75247,-5.2662 -1.8401,-27.14046 -13.93787,-28.79601 -12.09777,-1.65555 -27.64241,16.3709 -28.71958,19.95894 -1.07717,3.58804 7.38393,27.37814 22.83949,26.10976 15.45557,-1.26838 17.16051,-10.14036 17.16051,-10.14036"
         id="path47164"
         sodipodi:nodetypes="csczzzc" />
      <path
         style="fill:#e6e6e6;stroke:none;stroke-width:0.486328px;stroke-linecap:butt;stroke-linejoin:miter;stroke-opacity:1"
         d="m -499.20965,295.47895 c -0.37371,-0.25918 3.5733,-4.2086 2.22454,-7.62123 3.5882,2.83967 4.39473,4.1092 3.53089,5.46072 -0.86384,1.35152 -5.75543,2.16051 -5.75543,2.16051 z"
         id="path47162"
         sodipodi:nodetypes="cczc" />
      <path
         id="path10763-6"
         style="opacity:0.992016;fill:#000000;fill-opacity:0.742009;stroke:none;stroke-width:1.11226;stroke-linecap:butt;stroke-linejoin:miter;stroke-miterlimit:4;stroke-dasharray:none;stroke-opacity:1"
         d="m -450.67019,278.26307 c -18.71306,0.56841 -36.99802,19.74919 -41.60352,54.0332 0,0 -1.35689,10.50681 -0.82227,15.08204 2.81686,24.10643 26.78092,51.19036 50.51563,48.20507 23.73475,-2.98534 37.63683,-36.91376 36.08008,-59.67187 -6.31504,-40.17151 -25.45687,-58.21685 -44.16992,-57.64844 z" />
      <path
         id="path33483"
         style="opacity:0.992016;fill:#000000;fill-opacity:1;stroke:none;stroke-width:0.978008;stroke-linecap:butt;stroke-linejoin:miter;stroke-miterlimit:4;stroke-dasharray:none;stroke-opacity:1"
         d="m -450.67019,304.92713 c -18.71306,0.43947 -36.99802,15.26819 -41.60352,41.77539 0,0 -0.22025,1.43487 -0.44531,3.20704 4.11669,23.42761 27.23143,48.55504 50.13867,45.67382 19.92618,-2.5063 32.91778,-26.81987 35.6543,-48.02539 -6.70743,-29.6928 -25.42757,-43.06102 -43.74414,-42.63086 z" />
      <path
         style="fill:#869097;fill-opacity:0.960784;stroke:none;stroke-width:1px;stroke-linecap:butt;stroke-linejoin:miter;stroke-opacity:1"
         d="m -343.21185,159.63723 c 9.31012,-8.12051 -1.21756,-14.46138 20.22472,-11.79775 -5.57505,8.74573 -12.00564,12.85516 7.30337,8.42697 17.41573,-6.51105 34.83146,-13.36464 52.24719,0.5618 0,0 -12.81919,12.92434 -0.5618,14.60674 25.78736,3.53948 34.735,39.484 33.70787,37.07865 -10.28767,-9.15073 -17.7963,2.07809 -23.59551,25.8427 13.34787,-0.39732 13.9147,9.07907 10.12832,17.90462 -10.91033,-12.18911 -6.83933,11.29687 -10.69012,13.55605 -12.4004,-16.01064 -18.01362,4.17706 -26.40449,9.55056 0.0781,9.72825 9.63697,9.44253 6.35336,12.54337 -2.77126,2.61702 -14.92183,8.43572 -21.52191,5.99596 -3.33953,-15.56015 -12.52416,-11.16662 -9.81847,-24.79243 -10.0531,-12.00006 -22.30984,-8.11251 -12.97365,-19.10285 -9.65783,-7.45401 -19.88323,-21.62222 -3.87079,-20.38135 -10.65661,-14.68749 -17.68839,-19.40412 -14.19898,-33.52972 -9.98485,7.48486 -3.72358,-18.25308 -13.0707,-28.59814 z"
         id="path33633"
         sodipodi:nodetypes="ccccscccccsccccccc" />
      <path
         style="fill:#000000;stroke:#000000;stroke-width:1.00287;stroke-linecap:butt;stroke-linejoin:miter;stroke-miterlimit:4;stroke-dasharray:none;stroke-opacity:1"
         d="m -302.0759,243.86918 c 9.25346,8.75232 5.82673,26.22947 9.92515,24.59966 4.47475,-1.77946 5.98493,-24.34355 13.25183,-17.67219 -9.35984,-14.86026 -2.49171,-33.67046 9.22918,-10.84236 7.15264,-9.62196 2.44149,-21.02676 -0.55457,-25.15782 -9.02145,-9.27026 0.67561,-13.66888 5.80652,-17.47975 -10.55732,-18.72319 -43.20049,-7.87932 -22.92855,-27.40535 -6.00705,-13.08496 -27.86282,7.71471 -36.05821,-2.95931 -9.58536,6.72474 -23.75122,1.92046 -13.3285,12.25131 6.40334,6.3469 -2.96709,25.7025 19.93866,26.18284 -11.7009,2.15575 16.17404,16.3324 6.23957,26.11986 3.83287,6.75588 8.47892,12.36311 8.47892,12.36311 z"
         id="path33635"
         sodipodi:nodetypes="ssccccccsccs" />
    </g>
  </g>
</svg>
